<svg xmlns="http://www.w3.org/2000/svg" width="48" height="48"><g transform="translate(0 -1004.362)"><circle cx="24" cy="1028.362" r="24" fill="#1d67b1"/><g transform="translate(339.5 -456.5)"><path fill="none" stroke="#105286" stroke-linecap="round" stroke-linejoin="round" d="M-327.5 1492.862v-3h10v3m-5-3.007v-3m0-3.993v-3h15v3m-7.5-3.007v-3m7.498 10.007v3h3.002v3"/><rect width="4" height="4" x="-317" y="1472.862" fill="#2dbca4" rx="0" ry="0"/><rect width="4" height="4" x="-324.5" y="1482.862" fill="#f9b536" rx="0" ry="0"/><rect width="4" height="4" x="-309.5" y="1482.862" fill="#f9b536" rx="0" ry="0"/><rect width="4" height="4" x="-329.5" y="1492.862" fill="#ee7581" rx="0" ry="0"/><rect width="4" height="4" x="-319.5" y="1492.862" fill="#ee7581" rx="0" ry="0"/><rect width="4" height="4" x="-306.5" y="1492.862" fill="#ee7581" rx="0" ry="0"/></g></g></svg>