<svg xmlns="http://www.w3.org/2000/svg" xmlns:svgjs="http://svgjs.com/svgjs" xmlns:xlink="http://www.w3.org/1999/xlink" width="288" height="288"><svg xmlns="http://www.w3.org/2000/svg" width="288" height="288" viewBox="0 0 26 26"><g fill="#fc5185" class="color000 svgShape" transform="translate(0 -1026.362)"><circle cx="13" cy="1039.362" r="13" fill="#43dde6" class="color1d67b1 svgShape"/><path style="line-height:normal;text-indent:0;text-align:start;text-decoration-line:none;text-decoration-style:solid;text-decoration-color:#000;text-transform:none;block-progression:tb;isolation:auto;mix-blend-mode:normal" fill="#364f6b" d="M10.799 25.799a13 13 0 0 0 .904.137A13 13 0 0 0 13 26a13 13 0 0 0 .92-.033 13 13 0 0 0 1.289-.156 13 13 0 0 0 1.268-.286 13 13 0 0 0 1.234-.408 13 13 0 0 0 1.185-.531 13 13 0 0 0 1.127-.647 13 13 0 0 0 1.057-.755 13 13 0 0 0 .977-.858 13 13 0 0 0 .886-.951 13 13 0 0 0 .786-1.035 13 13 0 0 0 .68-1.108 13 13 0 0 0 .566-1.17 13 13 0 0 0 .445-1.22 13 13 0 0 0 .32-1.26 13 13 0 0 0 .196-1.285A13 13 0 0 0 26 13a13 13 0 0 0-.033-.92 13 13 0 0 0-.154-1.268L21 6H5v13l1 1v1l4.799 4.799z" class="color154082 svgShape" color="#000" font-family="sans-serif" font-weight="400" transform="translate(0 1026.362)"/><path style="line-height:normal;text-indent:0;text-align:start;text-decoration-line:none;text-decoration-style:solid;text-decoration-color:#000;text-transform:none;block-progression:tb;isolation:auto;mix-blend-mode:normal" fill="#f0f0f0" d="M0 1v13h1v2h4v-2h6v2h4v-2h1V1H0Zm1 1h14v3H1V2Zm1.5 1a.5.5 0 0 0-.5.5.5.5 0 0 0 .5.5.5.5 0 0 0 .5-.5.5.5 0 0 0-.5-.5Zm7 0a.5.5 0 0 0-.5.5.5.5 0 0 0 .5.5.5.5 0 0 0 .5-.5.5.5 0 0 0-.5-.5Zm2 0a.5.5 0 0 0-.5.5.5.5 0 0 0 .5.5.5.5 0 0 0 .5-.5.5.5 0 0 0-.5-.5Zm2 0a.5.5 0 0 0-.5.5.5.5 0 0 0 .5.5.5.5 0 0 0 .5-.5.5.5 0 0 0-.5-.5ZM1 6h14v3H1V6Zm1.5 1a.5.5 0 0 0-.5.5.5.5 0 0 0 .5.5.5.5 0 0 0 .5-.5.5.5 0 0 0-.5-.5Zm7 0a.5.5 0 0 0-.5.5.5.5 0 0 0 .5.5.5.5 0 0 0 .5-.5.5.5 0 0 0-.5-.5Zm2 0a.5.5 0 0 0-.5.5.5.5 0 0 0 .5.5.5.5 0 0 0 .5-.5.5.5 0 0 0-.5-.5Zm2 0a.5.5 0 0 0-.5.5.5.5 0 0 0 .5.5.5.5 0 0 0 .5-.5.5.5 0 0 0-.5-.5ZM1 10h14v3H1v-3zm1.5 1a.5.5 0 0 0-.5.5.5.5 0 0 0 .5.5.5.5 0 0 0 .5-.5.5.5 0 0 0-.5-.5Zm7 0a.5.5 0 0 0-.5.5.5.5 0 0 0 .5.5.5.5 0 0 0 .5-.5.5.5 0 0 0-.5-.5Zm2 0a.5.5 0 0 0-.5.5.5.5 0 0 0 .5.5.5.5 0 0 0 .5-.5.5.5 0 0 0-.5-.5Zm2 0a.5.5 0 0 0-.5.5.5.5 0 0 0 .5.5.5.5 0 0 0 .5-.5.5.5 0 0 0-.5-.5ZM2 14h2v1H2v-1zm10 0h2v1h-2v-1z" class="colorfff svgShape" color="#000" font-family="sans-serif" font-weight="400" overflow="visible" transform="translate(5 1031.362)"/></g></svg></svg>